<svg width="294" height="294" viewBox="0 0 294 294" fill="none" xmlns="http://www.w3.org/2000/svg">
<path d="M87.5 146L122.5 198.5L90.5 139.5L129 199.5L94 133L134 199.5L97.5 127.5L141.5 200.5L100.5 122L147 199.5L103.5 116.5L153.5 199.5L107 112L160.5 199.5L110.5 107L166.5 198.5L113 102L173 198.5L117.5 98.5L177.5 195.5L121 96M127 95L181 190L133.5 95L185 185L139.5 95L187.5 179L146 95L191 175L152.5 95L194 168.5L158.5 95L197.5 163L165 96L200 157L171 96L202.5 152L175.5 96L204 148M146.761 200.332C223.949 200.332 286.522 176.441 286.522 146.969C286.522 117.497 223.949 93.6058 146.761 93.6058C69.5733 93.6058 7 117.497 7 146.969C7 176.441 69.5733 200.332 146.761 200.332ZM100.547 173.651C139.141 240.497 191.118 282.742 216.641 268.006C242.165 253.27 231.569 187.134 192.975 120.287C154.381 53.4408 102.404 11.1966 76.8806 25.9325C51.3572 40.6685 61.9531 106.804 100.547 173.651ZM100.547 120.287C61.9537 187.134 51.3579 253.27 76.8812 268.006C102.404 282.741 154.381 240.497 192.975 173.651C231.569 106.804 242.165 40.6683 216.642 25.9324C191.119 11.1965 139.141 53.4406 100.547 120.287Z" stroke="url(#paint0_linear_1_71)" stroke-width="6"/>
<path d="M142 172.2C142 174.851 144.239 177 147 177C149.761 177 152 174.851 152 172.2V121.8C152 119.149 149.761 117 147 117C144.239 117 142 119.149 142 121.8V172.2Z" fill="white"/>
<path d="M121.8 152H172.2C174.851 152 177 149.761 177 147C177 144.239 174.851 142 172.2 142H121.8C119.149 142 117 144.239 117 147C117 149.761 119.149 152 121.8 152Z" fill="white"/>
<defs>
<linearGradient id="paint0_linear_1_71" x1="146.761" y1="23" x2="146.761" y2="270.938" gradientUnits="userSpaceOnUse">
<stop stop-color="#61DAFB"/>
<stop offset="1" stop-color="#3AFDD8"/>
</linearGradient>
</defs>
</svg>
