<svg width="294" height="294" viewBox="0 0 294 294" fill="none" xmlns="http://www.w3.org/2000/svg">
<g clip-path="url(#clip0_1206_545)">
<path d="M147.114 200.363C224.302 200.363 286.875 176.472 286.875 147C286.875 117.528 224.302 93.6367 147.114 93.6367C69.9258 93.6367 7.35254 117.528 7.35254 147C7.35254 176.472 69.9258 200.363 147.114 200.363Z" stroke="#61DAFB" stroke-width="6"/>
<path d="M100.9 173.682C139.494 240.528 191.471 282.773 216.994 268.037C242.518 253.301 231.922 187.165 193.328 120.318C154.734 53.4717 102.757 11.2275 77.2332 25.9634C51.7098 40.6994 62.3057 106.835 100.9 173.682Z" stroke="#61DAFB" stroke-width="6"/>
<path d="M100.9 120.318C62.3063 187.165 51.7105 253.301 77.2338 268.037C102.757 282.772 154.734 240.528 193.328 173.682C231.922 106.835 242.518 40.6992 216.995 25.9633C191.472 11.2274 139.494 53.4715 100.9 120.318Z" stroke="#61DAFB" stroke-width="6"/>
<g clip-path="url(#clip1_1206_545)">
<path d="M147 105C123.804 105 105 123.804 105 147C105 170.196 123.804 189 147 189C170.196 189 189 170.196 189 147C189 123.804 170.196 105 147 105Z" fill="url(#paint0_linear_1206_545)"/>
<path d="M143 169.68C143 172.066 144.791 174 147 174C149.209 174 151 172.066 151 169.68V124.32C151 121.934 149.209 120 147 120C144.791 120 143 121.934 143 124.32V169.68Z" fill="white"/>
<path d="M124.32 151H169.68C172.066 151 174 149.209 174 147C174 144.791 172.066 143 169.68 143H124.32C121.934 143 120 144.791 120 147C120 149.209 121.934 151 124.32 151Z" fill="white"/>
</g>
</g>
<defs>
<linearGradient id="paint0_linear_1206_545" x1="147" y1="189" x2="147" y2="105" gradientUnits="userSpaceOnUse">
<stop stop-color="#39FFD7"/>
<stop offset="1" stop-color="#61DAFB"/>
</linearGradient>
<clipPath id="clip0_1206_545">
<rect width="292.228" height="260" fill="white" transform="translate(1 17)"/>
</clipPath>
<clipPath id="clip1_1206_545">
<rect width="84" height="84" fill="white" transform="translate(189 189) rotate(-180)"/>
</clipPath>
</defs>
</svg>
